<?xml version="1.0" encoding="utf-8"?>
<!-- Generator: Adobe Illustrator 24.1.2, SVG Export Plug-In . SVG Version: 6.00 Build 0)  -->
<svg version="1.1" id="Layer_1" xmlns="http://www.w3.org/2000/svg" xmlns:xlink="http://www.w3.org/1999/xlink" x="0px" y="0px"
	 viewBox="0 0 20 20" style="enable-background:new 0 0 20 20;" xml:space="preserve">
<style type="text/css">
	.st0{fill-rule:evenodd;clip-rule:evenodd;fill:#DA291C;}
</style>
<path class="st0" d="M12.1,19.7c-0.5,0-0.9-0.3-1-0.9c-0.7-2.5-1.3-5.1-1.9-7.6c-0.1-0.4-0.3-0.5-0.6-0.6C6,10,3.4,9.3,0.9,8.7
	C0.4,8.5,0.1,8.3,0,7.8c0-0.6,0.3-0.8,0.8-1c5.8-2.2,11.6-4.4,17.5-6.6c0.4-0.2,0.8-0.2,1.2,0.2c0.3,0.3,0.3,0.7,0.1,1.2
	c-2.2,5.8-4.4,11.7-6.7,17.5C12.8,19.4,12.5,19.7,12.1,19.7L12.1,19.7z M17.1,2.7c0,0-0.1-0.1-0.1-0.1L4,7.5
	c0.2,0.1,0.3,0.1,0.4,0.1C6.2,8.1,8,8.6,9.7,9c0.5,0.1,0.9,0.4,1,1c0.2,0.8,0.4,1.5,0.6,2.3c0.3,1.1,0.6,2.2,0.9,3.5L17.1,2.7
	L17.1,2.7z"/>
</svg>
